<svg width="128" height="24" viewBox="0 0 128 24" fill="none" xmlns="http://www.w3.org/2000/svg">
<line y1="11.5" x2="40" y2="11.5" stroke="#D4967D"/>
<path d="M74.5 12C74.5024 12.3076 74.4089 12.6083 74.2324 12.8604C74.056 13.1124 73.8055 13.3032 73.5156 13.4062L67.5681 15.5691L65.4062 21.5156C65.2997 21.8027 65.1078 22.0503 64.8565 22.2251C64.6051 22.3999 64.3062 22.4936 64 22.4936C63.6938 22.4936 63.3949 22.3999 63.1435 22.2251C62.8922 22.0503 62.7003 21.8027 62.5937 21.5156L60.4319 15.5681L54.4844 13.4062C54.1973 13.2997 53.9497 13.1078 53.7749 12.8565C53.6001 12.6051 53.5063 12.3062 53.5063 12C53.5063 11.6938 53.6001 11.3949 53.7749 11.1435C53.9497 10.8922 54.1973 10.7003 54.4844 10.5937L60.4319 8.43187L62.5937 2.48437C62.7003 2.1973 62.8922 1.94972 63.1435 1.77489C63.3949 1.60006 63.6938 1.50635 64 1.50635C64.3062 1.50635 64.6051 1.60006 64.8565 1.77489C65.1078 1.94972 65.2997 2.1973 65.4062 2.48437L67.5691 8.43187L73.5156 10.5937C73.8055 10.6968 74.056 10.8876 74.2324 11.1396C74.4089 11.3916 74.5024 11.6924 74.5 12Z" fill="#D4967D"/>
<line x1="88" y1="11.5" x2="128" y2="11.5" stroke="#D4967D"/>
</svg>
